<svg width="32" height="32" viewBox="0 0 32 32" xmlns="http://www.w3.org/2000/svg">
  <rect width="32" height="32" rx="8" fill="#c9a96e"/>
  <ellipse cx="16" cy="28" rx="12" ry="2" fill="none" stroke="#ffffff" stroke-width="1.8" stroke-linecap="round"/>
  <path d="M10 22 Q9 28 16 28 Q23 28 22 22 Z" fill="none" stroke="#ffffff" stroke-width="1.6" stroke-linejoin="round"/>
  <path d="M22 23.5 Q26 23.5 26 25.5 Q26 27.5 22 27" fill="none" stroke="#ffffff" stroke-width="1.6" stroke-linecap="round"/>
  <path d="M2 15 Q16 2 30 15" fill="none" stroke="#ffffff" stroke-width="2" stroke-linecap="round"/>
  <line x1="2" y1="15" x2="1" y2="11" stroke="#ffffff" stroke-width="1.4" stroke-linecap="round"/>
  <line x1="3.5" y1="14.5" x2="2.5" y2="10" stroke="#ffffff" stroke-width="1.4" stroke-linecap="round"/>
  <line x1="5" y1="14" x2="4" y2="9.5" stroke="#ffffff" stroke-width="1.4" stroke-linecap="round"/>
  <path d="M6 18 Q16 7 26 18" fill="none" stroke="#ffffff" stroke-width="1.8" stroke-linecap="round"/>
  <ellipse cx="4" cy="16.5" rx="2" ry="2.5" fill="none" stroke="#ffffff" stroke-width="1.4" transform="rotate(-25 4 16.5)"/>
  <path d="M9 21 Q16 12 23 21" fill="none" stroke="#ffffff" stroke-width="1.6" stroke-linecap="round"/>
  <path d="M9 21 L7 16 Q6.5 15 8 15 L9 18" fill="#ffffff"/>
</svg>
