<svg width="64" height="64" viewBox="0 0 64 64" xmlns="http://www.w3.org/2000/svg">
  <rect width="64" height="64" rx="16" fill="#c9a96e"/>
  <ellipse cx="32" cy="56" rx="26" ry="4" fill="none" stroke="#ffffff" stroke-width="2.5" stroke-linecap="round"/>
  <path d="M20 44 Q18 56 32 56 Q46 56 44 44 Z" fill="none" stroke="#ffffff" stroke-width="2.2" stroke-linejoin="round"/>
  <path d="M44 47 Q52 47 52 51 Q52 55 44 54" fill="none" stroke="#ffffff" stroke-width="2.2" stroke-linecap="round"/>
  <path d="M26 41 Q25 37 26 33" fill="none" stroke="#ffffff" stroke-width="1.6" stroke-linecap="round" opacity="0.6"/>
  <path d="M32 39 Q31 35 32 31" fill="none" stroke="#ffffff" stroke-width="1.6" stroke-linecap="round" opacity="0.6"/>
  <path d="M38 41 Q37 37 38 33" fill="none" stroke="#ffffff" stroke-width="1.6" stroke-linecap="round" opacity="0.6"/>
  <path d="M4 30 Q32 4 60 30" fill="none" stroke="#ffffff" stroke-width="2.8" stroke-linecap="round"/>
  <line x1="4" y1="30" x2="2" y2="22" stroke="#ffffff" stroke-width="1.8" stroke-linecap="round"/>
  <line x1="6.5" y1="29" x2="5" y2="21" stroke="#ffffff" stroke-width="1.8" stroke-linecap="round"/>
  <line x1="9" y1="28" x2="8" y2="20" stroke="#ffffff" stroke-width="1.8" stroke-linecap="round"/>
  <line x1="60" y1="30" x2="62" y2="22" stroke="#ffffff" stroke-width="2" stroke-linecap="round"/>
  <path d="M11 36 Q32 14 53 36" fill="none" stroke="#ffffff" stroke-width="2.5" stroke-linecap="round"/>
  <ellipse cx="8" cy="33" rx="3.5" ry="4.5" fill="none" stroke="#ffffff" stroke-width="1.8" transform="rotate(-25 8 33)"/>
  <line x1="53" y1="36" x2="55" y2="28" stroke="#ffffff" stroke-width="2" stroke-linecap="round"/>
  <path d="M18 41 Q32 24 46 41" fill="none" stroke="#ffffff" stroke-width="2.2" stroke-linecap="round"/>
  <path d="M18 41 L14 33 Q13 30 16 30 L18 35" fill="#ffffff"/>
  <rect x="45" y="37" width="3" height="7" rx="1" fill="#ffffff" opacity="0.85"/>
</svg>
